<?xml version="1.0" standalone="no"?><!DOCTYPE svg PUBLIC "-//W3C//DTD SVG 1.1//EN" "http://www.w3.org/Graphics/SVG/1.1/DTD/svg11.dtd"><svg t="1760622245544" class="icon" viewBox="0 0 1024 1024" version="1.1" xmlns="http://www.w3.org/2000/svg" p-id="8329" xmlns:xlink="http://www.w3.org/1999/xlink" width="200" height="200"><path d="M467.626667 893.952a21.333333 21.333333 0 0 0 21.333333-21.333333v-25.6a21.333333 21.333333 0 0 0-20.48-21.333334H235.306667a12.8 12.8 0 0 1-12.8-12.074666V208.085333a12.8 12.8 0 0 1 12.8-12.8H746.666667a12.8 12.8 0 0 1 12.8 12.8v281.045334a21.333333 21.333333 0 0 0 21.333333 21.333333h25.6a21.333333 21.333333 0 0 0 21.333333-21.333333V148.352a21.333333 21.333333 0 0 0-21.333333-21.333333H175.530667a21.333333 21.333333 0 0 0-21.333334 21.333333v724.266667a21.333333 21.333333 0 0 0 21.333334 21.333333h292.053333z m181.546666-441.045333a21.333333 21.333333 0 0 0 21.333334-21.333334v-25.6a21.333333 21.333333 0 0 0-21.333334-21.333333h-320.426666a21.333333 21.333333 0 0 0-21.333334 21.333333v25.6a21.333333 21.333333 0 0 0 21.333334 21.333334h320.426666zM456.533333 637.781333a21.333333 21.333333 0 0 0 21.333334-21.333333v-25.6a21.333333 21.333333 0 0 0-21.333334-21.333333H328.746667a21.333333 21.333333 0 0 0-21.333334 21.333333v25.6a21.333333 21.333333 0 0 0 21.333334 21.333333H456.533333z" fill="#666666" p-id="8330"></path><path d="M725.333333 558.336c117.632 0 213.333333 95.018667 213.333334 211.498667S844.544 981.333333 725.333333 981.333333s-213.333333-95.018667-213.333333-211.498666 95.701333-211.498667 213.333333-211.498667z m2.133334 87.381333h-42.666667v172.245334h153.6v-42.666667h-110.976v-129.578667z" fill="#696969" p-id="8331"></path></svg>