<?xml version="1.0" standalone="no"?><!DOCTYPE svg PUBLIC "-//W3C//DTD SVG 1.1//EN" "http://www.w3.org/Graphics/SVG/1.1/DTD/svg11.dtd"><svg t="1760189361305" class="icon" viewBox="0 0 1024 1024" version="1.1" xmlns="http://www.w3.org/2000/svg" p-id="1543" xmlns:xlink="http://www.w3.org/1999/xlink" width="200" height="200"><path d="M671.1 297c-29.5 0-53.4-23.9-53.4-53.4V30.4L884.3 297H671.1z m0 53.4h213.4v533.4c0 58.8-47.6 106.5-106.4 106.6H244.7c-58.9 0-106.6-47.7-106.6-106.5V137c0-58.9 47.7-106.6 106.5-106.6h320.1v213.4c0 58.8 47.6 106.5 106.4 106.6zM271 830.4h320V777H271v53.4z m0-160h480V617H271v53.4z m0-213.4v53.5h480V457H271z" fill="#1296db" p-id="1544"></path></svg>