<?xml version="1.0" standalone="no"?><!DOCTYPE svg PUBLIC "-//W3C//DTD SVG 1.1//EN" "http://www.w3.org/Graphics/SVG/1.1/DTD/svg11.dtd"><svg t="1760964075064" class="icon" viewBox="0 0 1024 1024" version="1.1" xmlns="http://www.w3.org/2000/svg" p-id="16956" xmlns:xlink="http://www.w3.org/1999/xlink" width="200" height="200"><path d="M512 85.333333a384 384 0 0 1 294.144 630.869334c53.546667 35.413333 86.784 80.64 89.642667 130.090666L896 853.333333l-384 85.333334-384-85.333334 0.213333-7.04c2.858667-49.493333 36.096-94.72 89.6-130.133333A382.506667 382.506667 0 0 1 128 469.333333a384 384 0 0 1 384-384z m0 469.333334c-58.88 0-106.666667 28.672-106.666667 64S453.12 682.666667 512 682.666667s106.666667-28.672 106.666667-64S570.88 554.666667 512 554.666667zM384 341.333333c-47.146667 0-85.333333 28.672-85.333333 64S336.853333 469.333333 384 469.333333s85.333333-28.672 85.333333-64S431.146667 341.333333 384 341.333333z m256 0c-47.146667 0-85.333333 28.672-85.333333 64s38.186667 64 85.333333 64 85.333333-28.672 85.333333-64S687.146667 341.333333 640 341.333333z" fill="#000000" p-id="16957"></path></svg>