<?xml version="1.0" standalone="no"?><!DOCTYPE svg PUBLIC "-//W3C//DTD SVG 1.1//EN" "http://www.w3.org/Graphics/SVG/1.1/DTD/svg11.dtd"><svg t="1760964147894" class="icon" viewBox="0 0 1024 1024" version="1.1" xmlns="http://www.w3.org/2000/svg" p-id="18746" xmlns:xlink="http://www.w3.org/1999/xlink" width="200" height="200"><path d="M512 256a128 128 0 1 0 0 256 128 128 0 0 0 0-256zM298.666667 384a213.333333 213.333333 0 1 1 426.666666 0A213.333333 213.333333 0 0 1 298.666667 384z" p-id="18747"></path><path d="M512 85.333333C276.352 85.333333 85.333333 276.352 85.333333 512s191.018667 426.666667 426.666667 426.666667 426.666667-191.018667 426.666667-426.666667S747.648 85.333333 512 85.333333zM0 512C0 229.248 229.248 0 512 0s512 229.248 512 512-229.248 512-512 512S0 794.752 0 512z" p-id="18748"></path><path d="M170.666667 832A192 192 0 0 1 362.666667 640h298.666666a192 192 0 0 1 192 192v42.666667a42.666667 42.666667 0 1 1-85.333333 0v-42.666667a106.666667 106.666667 0 0 0-106.666667-106.666667h-298.666666A106.666667 106.666667 0 0 0 256 832v42.666667a42.666667 42.666667 0 1 1-85.333333 0v-42.666667z" p-id="18749"></path></svg>