<?xml version="1.0" standalone="no"?><!DOCTYPE svg PUBLIC "-//W3C//DTD SVG 1.1//EN" "http://www.w3.org/Graphics/SVG/1.1/DTD/svg11.dtd"><svg t="1760964153287" class="icon" viewBox="0 0 1024 1024" version="1.1" xmlns="http://www.w3.org/2000/svg" p-id="18905" xmlns:xlink="http://www.w3.org/1999/xlink" width="200" height="200"><path d="M819.2 102.4a102.4 102.4 0 0 1 102.4 102.4v307.2c0 226.2016-183.3984 409.6-409.6 409.6S102.4 738.2016 102.4 512C102.4 289.28 280.200533 108.066133 501.589333 102.536533L512 102.4h307.2z m0 68.266667h-306.346667l-9.557333 0.1024C318.464 175.377067 170.666667 326.724267 170.666667 512c0 188.5184 152.814933 341.333333 341.333333 341.333333 185.344 0 336.145067-147.694933 341.1968-331.776L853.333333 512V204.8a34.133333 34.133333 0 0 0-30.139733-33.8944L819.2 170.666667zM307.2 443.733333a34.133333 34.133333 0 0 1 34.133333 34.133334v68.266666a34.133333 34.133333 0 0 1-68.266666 0v-68.266666a34.133333 34.133333 0 0 1 34.133333-34.133334z m136.533333 0a34.133333 34.133333 0 0 1 34.133334 34.133334v68.266666a34.133333 34.133333 0 0 1-68.266667 0v-68.266666a34.133333 34.133333 0 0 1 34.133333-34.133334z" fill="#2B2B36" p-id="18906"></path></svg>