<?xml version="1.0" standalone="no"?><!DOCTYPE svg PUBLIC "-//W3C//DTD SVG 1.1//EN" "http://www.w3.org/Graphics/SVG/1.1/DTD/svg11.dtd"><svg t="1760964187539" class="icon" viewBox="0 0 1025 1024" version="1.1" xmlns="http://www.w3.org/2000/svg" p-id="21703" xmlns:xlink="http://www.w3.org/1999/xlink" width="200.1953125" height="200"><path d="M508.754201 0C227.765881 0 0.003612 227.787556 0.003612 508.750588c0 164.414093 78.058131 310.531053 199.075689 403.526725 85.777967 65.938313 193.104285 105.223863 309.674899 105.223863s223.871645-39.28555 309.671287-105.245538c121.017558-92.992059 199.075689-239.10902 199.075689-403.50505C1017.501177 227.787556 789.691946 0 508.754201 0L508.754201 0zM386.739603 530.515686c-30.546999 0-55.295993-24.756219-55.295993-55.303218s24.748994-55.299605 55.295993-55.299605 55.299605 24.752606 55.299605 55.299605S417.286602 530.515686 386.739603 530.515686L386.739603 530.515686zM508.754201 680.396835c-36.475053 0-66.071974-37.136134-66.071974-82.949408l132.118661 0C574.800888 643.257088 545.250929 680.396835 508.754201 680.396835L508.754201 680.396835zM629.479149 530.515686c-30.543387 0-55.299605-24.756219-55.299605-55.303218s24.756219-55.299605 55.299605-55.299605c30.550612 0 55.303218 24.752606 55.303218 55.299605S660.02976 530.515686 629.479149 530.515686L629.479149 530.515686zM818.425488 854.275584l0-354.039575c0-164.92345-138.642772-298.617146-309.671287-298.617146s-309.674899 133.693695-309.674899 298.617146l0 354.039575c-94.827191-85.044637-154.83745-208.117687-154.83745-345.524996 0-256.542773 207.944289-464.508737 464.508737-464.508737 256.542773 0 464.512349 207.969576 464.512349 464.508737C973.26655 646.154285 913.249066 769.230947 818.425488 854.275584L818.425488 854.275584z" fill="#272536" p-id="21704"></path></svg>