<?xml version="1.0" standalone="no"?><!DOCTYPE svg PUBLIC "-//W3C//DTD SVG 1.1//EN" "http://www.w3.org/Graphics/SVG/1.1/DTD/svg11.dtd"><svg t="1760964144397" class="icon" viewBox="0 0 1024 1024" version="1.1" xmlns="http://www.w3.org/2000/svg" p-id="18587" xmlns:xlink="http://www.w3.org/1999/xlink" width="200" height="200"><path d="M512 213.333333a128 128 0 1 0 0 256 128 128 0 0 0 0-256zM298.666667 341.333333a213.333333 213.333333 0 1 1 426.666666 0A213.333333 213.333333 0 0 1 298.666667 341.333333z" p-id="18588"></path><path d="M0 42.666667a42.666667 42.666667 0 0 1 42.666667-42.666667h938.666666a42.666667 42.666667 0 0 1 42.666667 42.666667v938.666666a42.666667 42.666667 0 0 1-42.666667 42.666667H42.666667a42.666667 42.666667 0 0 1-42.666667-42.666667V42.666667z m85.333333 42.666666v853.333334h853.333334V85.333333H85.333333z" p-id="18589"></path><path d="M170.666667 789.333333A192 192 0 0 1 362.666667 597.333333h298.666666a192 192 0 0 1 192 192v21.333334a42.666667 42.666667 0 1 1-85.333333 0v-21.333334a106.666667 106.666667 0 0 0-106.666667-106.666666h-298.666666A106.666667 106.666667 0 0 0 256 789.333333v21.333334a42.666667 42.666667 0 1 1-85.333333 0v-21.333334z" p-id="18590"></path></svg>