<?xml version="1.0" standalone="no"?><!DOCTYPE svg PUBLIC "-//W3C//DTD SVG 1.1//EN" "http://www.w3.org/Graphics/SVG/1.1/DTD/svg11.dtd"><svg t="1760964136924" class="icon" viewBox="0 0 1030 1024" version="1.1" xmlns="http://www.w3.org/2000/svg" p-id="18419" xmlns:xlink="http://www.w3.org/1999/xlink" width="201.171875" height="200"><path d="M565.472219 449.614484a15.477597 15.477597 0 0 1 0-30.59525c23.396368 0 47.15268-2.879553 71.988825-6.11905a15.477597 15.477597 0 0 1 17.277318 13.317932 15.117653 15.117653 0 0 1-13.317932 16.917374c-23.756312 3.239497-48.592457 5.399162-71.988825 6.478994zM456.049205 452.853981a472.966579 472.966579 0 0 1-83.86698-10.438379 15.117653 15.117653 0 0 1-11.878157-17.997206 15.477597 15.477597 0 0 1 17.997207-11.878156 417.895128 417.895128 0 0 0 79.187707 9.718491 15.837541 15.837541 0 0 1 14.757709 15.837541 15.477597 15.477597 0 0 1-15.477597 14.757709z" fill="#333333" p-id="18420"></path><path d="M418.255072 474.450629a15.477597 15.477597 0 0 1-15.117653-14.397765v-22.67648a15.477597 15.477597 0 0 1 30.595251 0v22.67648a15.117653 15.117653 0 0 1-14.757709 15.837541zM603.266352 473.370797a15.477597 15.477597 0 0 1-15.117653-14.75771v-22.676479a15.117653 15.117653 0 1 1 30.235307-1.799721v22.67648a15.117653 15.117653 0 0 1-14.75771 15.837541zM511.120657 641.824647a122.381002 122.381002 0 0 1-34.194692-4.679274 15.117653 15.117653 0 0 1-10.798324-18.717094 15.477597 15.477597 0 0 1 18.717094-10.798324 92.865584 92.865584 0 0 0 51.47201 0 15.477597 15.477597 0 0 1 18.717095 10.798324 15.117653 15.117653 0 0 1-10.798324 18.717094 128.500052 128.500052 0 0 1-33.114859 4.679274zM220.645748 910.342963h-2.519609a74.14849 74.14849 0 0 1-45.712903-20.15687 53.631675 53.631675 0 0 1-7.558827-57.59106A107.983237 107.983237 0 0 1 197.609324 792.641235a229.284407 229.284407 0 0 1 119.141505-53.991619h9.358548a132.459438 132.459438 0 0 0 20.876759-2.879553 22.67648 22.67648 0 0 0 15.117653-11.158268 15.117653 15.117653 0 0 1 19.796927-8.638659 15.477597 15.477597 0 0 1 8.638659 19.796927 52.551842 52.551842 0 0 1-35.994413 29.155474 132.099494 132.099494 0 0 1-26.635865 3.959386h-8.638659A203.728374 203.728374 0 0 0 215.966475 816.397547a82.427204 82.427204 0 0 0-24.116257 28.075642 25.196089 25.196089 0 0 0 2.159665 25.556033c7.918771 6.11905 17.997206 17.997206 28.435586 18.35715a15.837541 15.837541 0 0 1 12.598044 17.637262c0 7.198882-7.918771 4.319329-15.477597 4.319329zM809.87428 913.222516a15.117653 15.117653 0 0 1-15.477598-15.117653 16.197486 16.197486 0 0 1 10.078436-14.397765c14.397765-5.039218 29.155474-11.518212 31.315139-21.956591s-10.078435-24.116256-17.997207-31.315139a165.214353 165.214353 0 0 0-31.315138-23.396368 32.394971 32.394971 0 0 0-7.918771-2.159665 44.273127 44.273127 0 0 1-25.556033-13.317933 51.831954 51.831954 0 0 1-8.278715-14.397765 60.830557 60.830557 0 0 1-17.997206 0 77.387987 77.387987 0 0 1-17.997206-4.319329l-8.998603-2.519609h-5.759106a122.021058 122.021058 0 0 1-35.994413-11.158268 48.592457 48.592457 0 0 1-26.635865-46.072848 15.117653 15.117653 0 0 1 16.917374-13.317932 15.477597 15.477597 0 0 1 13.317932 16.917374 18.717094 18.717094 0 0 0 11.158268 15.837541 95.025249 95.025249 0 0 0 26.635866 7.918771h6.11905l11.878156 3.599441 11.518212 2.879553a35.994412 35.994412 0 0 0 8.998603 0h10.798324a24.116256 24.116256 0 0 1 13.317932 2.879553 22.67648 22.67648 0 0 1 8.998603 12.957989 35.994412 35.994412 0 0 0 4.679274 10.798323 26.995809 26.995809 0 0 0 8.638659 2.879553 59.750725 59.750725 0 0 1 15.477597 5.039218 177.092509 177.092509 0 0 1 35.994413 27.715698 62.270334 62.270334 0 0 1 27.715697 61.190501c-6.478994 27.355753-35.994412 38.154077-50.752121 43.553239a11.518212 11.518212 0 0 1-2.879553-0.719889z" fill="#333333" p-id="18421"></path><path d="M516.159874 844.113245h-20.876759a222.085525 222.085525 0 0 1-156.21575-82.067261 15.117653 15.117653 0 0 1 3.239497-21.236703 15.837541 15.837541 0 0 1 21.596648 3.599441 189.690554 189.690554 0 0 0 134.259158 69.469216 167.374018 167.374018 0 0 0 133.179326-44.273127 15.117653 15.117653 0 1 1 20.876759 22.316536 196.169548 196.169548 0 0 1-136.058879 52.191898z" fill="#333333" p-id="18422"></path><path d="M508.960992 753.767269a179.972062 179.972062 0 0 1-30.955195-2.879553 115.902008 115.902008 0 0 1-46.072848-15.477597l-5.759106-3.599441a138.578488 138.578488 0 0 1-18.717094-13.677877l-15.837542-14.757709-11.158268-10.43838a174.5729 174.5729 0 0 1-27.355753-35.994412v-2.159665a71.988825 71.988825 0 0 0-15.837542-20.156871l-3.959385-2.159664a31.315139 31.315139 0 0 1-18.35715-19.796927 28.075642 28.075642 0 0 1 0-12.238101v-1.79972a39.953798 39.953798 0 0 0-6.11905-16.917374 101.144299 101.144299 0 0 1-6.838939-14.037821l-4.319329-12.957988c-2.519609-8.278715-5.399162-16.197486-8.278715-23.756313a53.27173 53.27173 0 0 1-12.598044-8.998603 41.393574 41.393574 0 0 1-8.998604-19.796926 172.413236 172.413236 0 0 1 2.519609-101.864188 15.117653 15.117653 0 0 1 19.796927-8.638659 15.117653 15.117653 0 0 1 8.638659 19.796927 141.098097 141.098097 0 0 0 0 84.586869 12.2381 12.2381 0 0 0 1.799721 5.039218 59.030836 59.030836 0 0 0 7.918771 5.039218 13.317933 13.317933 0 0 1 6.11905 6.478994 277.876864 277.876864 0 0 1 11.878156 31.315139l3.959385 12.598044a87.826366 87.826366 0 0 0 5.039218 10.078436 59.030836 59.030836 0 0 1 9.358547 35.994412 10.43838 10.43838 0 0 1 0 3.239497h2.879553a38.514021 38.514021 0 0 1 7.558827 4.679274 92.145696 92.145696 0 0 1 23.396368 28.075642v2.159664a145.77737 145.77737 0 0 0 22.316535 29.155474l11.518212 10.798324 14.75771 14.037821a149.376812 149.376812 0 0 0 15.477597 10.798324l6.11905 3.959385a87.466422 87.466422 0 0 0 33.114859 10.798324 173.853012 173.853012 0 0 0 52.911787 0 129.939829 129.939829 0 0 0 85.306757-47.872569 666.616518 666.616518 0 0 0 57.59106-87.466422 215.966475 215.966475 0 0 0 22.316536-54.351563 22.316536 22.316536 0 0 1 0-4.319329 35.994412 35.994412 0 0 1 2.159665-15.477597 20.156871 20.156871 0 0 1 18.35715-11.878157 107.983237 107.983237 0 0 0 0-95.745137 15.117653 15.117653 0 0 1 6.11905-20.516815 15.837541 15.837541 0 0 1 20.876759 6.11905 143.97765 143.97765 0 0 1-2.159665 127.42022 19.796927 19.796927 0 0 1-16.557429 12.238101 75.94821 75.94821 0 0 1 0 8.998603 249.081334 249.081334 0 0 1-25.556033 62.630277A702.610931 702.610931 0 0 1 647.899424 692.576768a160.175135 160.175135 0 0 1-107.983238 59.030837q-15.117653 1.799721-30.955194 2.159664zM515.439986 376.905771a132.459438 132.459438 0 0 1-35.994412-4.319329 93.585472 93.585472 0 0 1-68.749328-61.91039 215.966475 215.966475 0 0 1-107.983237 63.71011 14.757709 14.757709 0 0 1-14.75771-4.319329 25.915977 25.915977 0 0 1-11.878156-15.477597 179.972062 179.972062 0 0 1 5.759106-103.303964A193.289995 193.289995 0 0 1 359.944124 162.739017l12.598045-6.11905a134.619102 134.619102 0 0 0 18.717094-10.078435 51.112066 51.112066 0 0 0 20.156871-35.994413 15.477597 15.477597 0 0 1 30.595251 2.519609 82.06726 82.06726 0 0 1-32.754916 57.951004 148.656923 148.656923 0 0 1-23.396368 12.957989l-11.158268 5.759106a157.655526 157.655526 0 0 0-64.789942 71.988824 143.97765 143.97765 0 0 0-5.039218 80.26754 193.649939 193.649939 0 0 0 109.782958-82.787148 20.876759 20.876759 0 0 1 2.519609-6.478995 15.477597 15.477597 0 0 1 23.756312 19.077039 20.156871 20.156871 0 0 0-1.79972 2.879553 49.672289 49.672289 0 0 0 2.519609 29.875362 65.509831 65.509831 0 0 0 46.792736 35.994413 209.847424 209.847424 0 0 0 99.344578-7.558827 287.955299 287.955299 0 0 1 107.983237-10.43838 15.117653 15.117653 0 0 1 12.2381 17.637263 14.757709 14.757709 0 0 1-17.277317 12.2381 277.156976 277.156976 0 0 0-97.184914 10.078435 366.063174 366.063174 0 0 1-78.107875 14.397765z" fill="#333333" p-id="18423"></path><path d="M736.445678 360.708286a15.117653 15.117653 0 0 1-16.557429-13.677877 14.757709 14.757709 0 0 1 0-5.759106 120.221338 120.221338 0 0 0-22.67648-118.781561 190.410442 190.410442 0 0 0-32.035027-29.155474l-11.878156-9.358547c-7.198882-5.759106-7.198882-6.11905-12.598045-6.478995h-5.039217a33.834748 33.834748 0 0 1-23.756313-7.91877 42.833351 42.833351 0 0 1-5.399162-6.478995 35.994412 35.994412 0 0 0-8.638659 0h-11.518212a167.014074 167.014074 0 0 1-32.754915-2.159664h-9.358547a170.973459 170.973459 0 0 1-82.427205-24.836145 15.117653 15.117653 0 0 1-3.599441-21.236703 15.477597 15.477597 0 0 1 21.236704-3.599441 147.217147 147.217147 0 0 0 68.389383 19.436982h9.718492a171.693347 171.693347 0 0 0 27.355753 2.159665h6.478994a35.994412 35.994412 0 0 1 35.994413 7.918771 28.435586 28.435586 0 0 1 4.319329 5.399162 8.998603 8.998603 0 0 1 4.31933 0 40.673686 40.673686 0 0 1 9.358547 0 43.193295 43.193295 0 0 1 28.075642 12.598044l12.598044 9.718491a230.36424 230.36424 0 0 1 35.994412 33.474804 150.0967 150.0967 0 0 1 27.355754 149.736756 15.477597 15.477597 0 0 1-12.957989 8.998603z" fill="#333333" p-id="18424"></path><path d="M860.626401 832.235089a467.927362 467.927362 0 0 0 126.340388-320.710215 461.808311 461.808311 0 0 0-52.911786-215.966475 17.637262 17.637262 0 0 1 0-14.757709 18.35715 18.35715 0 0 1 9.718491-11.518212 20.516815 20.516815 0 0 1 26.635865 8.278715 508.960992 508.960992 0 0 1-79.907595 582.389593l-68.02944 61.190501A514.000209 514.000209 0 0 1 0 511.524874a507.521215 507.521215 0 0 1 85.306757-281.83625 20.156871 20.156871 0 0 1 27.355754-5.399161 18.717094 18.717094 0 0 1 5.399162 28.435585A470.087026 470.087026 0 0 0 251.960887 904.583857a475.846132 475.846132 0 0 0 546.035237-15.837541z m49.312345-593.547861a19.436983 19.436983 0 0 1-15.837541-7.918771 475.846132 475.846132 0 0 0-673.455457-89.986031 20.516815 20.516815 0 0 1-28.075642-3.239497 19.796927 19.796927 0 0 1 3.599442-28.79553 515.080042 515.080042 0 0 1 729.60674 98.62469 19.436983 19.436983 0 0 1-3.959386 27.355753 18.35715 18.35715 0 0 1-11.878156 3.959386zM150.0967 198.373486a18.35715 18.35715 0 0 1-12.957989-5.399162 17.637262 17.637262 0 0 1-6.478994-12.2381 19.796927 19.796927 0 0 1 33.11486-15.477598 19.796927 19.796927 0 0 1-13.677877 35.994413z" fill="#333333" p-id="18425"></path></svg>