<?xml version="1.0" standalone="no"?><!DOCTYPE svg PUBLIC "-//W3C//DTD SVG 1.1//EN" "http://www.w3.org/Graphics/SVG/1.1/DTD/svg11.dtd"><svg t="1760964176036" class="icon" viewBox="0 0 1205 1024" version="1.1" xmlns="http://www.w3.org/2000/svg" p-id="20727" xmlns:xlink="http://www.w3.org/1999/xlink" width="235.3515625" height="200"><path d="M196.759455 428.320595h39.912227c9.365733 109.006954 78.891901 200.523167 159.931622 254.011018-104.898894 37.998884-204.875084 114.950644-257.926135 211.484692H209.02066c43.937215-62.166228 118.272197-120.141324 192.942148-147.170643 27.011901-9.777075 53.956808-25.094538 57.211367-53.743767 3.393906-28.503183-29.163742-44.396792-53.191738-60.145695-63.396234-41.806812-106.404915-130.67141-115.229339-210.360537h489.05475c-8.690436 79.689127-57.058621 168.553725-120.588842 210.360537-24.027997 15.88825-36.890807 30.451362-33.496901 58.954545 3.393906 28.509882 23.896689 43.817966 50.915289 53.595041 74.801259 27.029319 140.93084 86.344291 184.902892 148.510519h77.501109C885.975605 797.282257 785.640329 721.670373 680.657022 683.671489c81.180409-53.486511 150.892819-146.34394 160.39254-255.350894h39.909547c21.046773 0 38.016303-16.96953 38.016303-38.016302 0-21.038733-25.669345-37.582183-46.716118-37.582183-5.359504-202.32128-101.830578-343.008263-322.910122-352.387396-209.827266-8.902136-333.629131 162.124999-341.668388 352.387396-21.038733 0-48.929593 16.543449-48.929592 37.582183 0 21.046773 16.96953 38.016303 38.008263 38.016302zM538.863302 48.208485c40.31553 0 95.151296 14.248242 127.055084 28.499163l-30.817149 139.347107-199.641528-2.679752-24.117768-135.327479c32.175783-14.660924 86.795829-29.839039 127.521361-29.839039zM367.126032 107.524797l26.79752 105.850206c6.105815 36.648289 20.553698 45.555785 57.61467 45.555785l175.523759-2.679752c37.059631 0 48.683056-14.399648 54.934917-50.915289l21.438017-103.170454c73.693182 41.536157 119.248967 155.137546 119.248966 249.216941l-562.747932 2.679752c0-93.669393 50.853655-190.743412 107.190083-246.537189z" fill="" p-id="20728"></path></svg>