<?xml version="1.0" standalone="no"?><!DOCTYPE svg PUBLIC "-//W3C//DTD SVG 1.1//EN" "http://www.w3.org/Graphics/SVG/1.1/DTD/svg11.dtd"><svg t="1760964107007" class="icon" viewBox="0 0 1024 1024" version="1.1" xmlns="http://www.w3.org/2000/svg" p-id="17270" xmlns:xlink="http://www.w3.org/1999/xlink" width="200" height="200"><path d="M513 733.23a233.63 233.63 0 1 1 165.21-68.42A232.14 232.14 0 0 1 513 733.23zM513 326c-95.75 0-173.65 77.88-173.65 173.62S417.25 673.23 513 673.23s173.65-77.88 173.65-173.61S608.75 326 513 326z" fill="#0368CD" p-id="17271"></path><path d="M795.82 850.77a29.91 29.91 0 0 1-22-9.59c-64.29-69.25-159.36-109-260.82-109-99.79 0-193.85 38.65-258.06 106a30 30 0 0 1-43.44-41.39C287 717.64 396.88 672.21 513 672.21c118.09 0 229.19 46.71 304.79 128.15a30 30 0 0 1-22 50.41z" fill="#0368CD" p-id="17272"></path><path d="M512 962a448.11 448.11 0 0 1-174.39-860.78 448.11 448.11 0 0 1 348.78 825.56A445.19 445.19 0 0 1 512 962z m0-836c-213.94 0-388 174.06-388 388s174.06 388 388 388 388-174.06 388-388-174.06-388-388-388z" fill="#0368CD" p-id="17273"></path></svg>