<?xml version="1.0" standalone="no"?><!DOCTYPE svg PUBLIC "-//W3C//DTD SVG 1.1//EN" "http://www.w3.org/Graphics/SVG/1.1/DTD/svg11.dtd"><svg t="1760964218605" class="icon" viewBox="0 0 1024 1024" version="1.1" xmlns="http://www.w3.org/2000/svg" p-id="23513" xmlns:xlink="http://www.w3.org/1999/xlink" width="200" height="200"><path d="M512.491835 72.791547c241.982709 0 438.716619 196.73391 438.716618 438.716618S754.474544 950.224784 512.491835 950.224784 73.775216 753.490874 73.775216 511.508165 270.509126 72.791547 512.491835 72.791547z m217.39097 528.230547c16.722382 20.657061 30.493756 44.26513 40.330451 69.840538 9.836695 23.608069 15.738713 49.183477 17.706052 75.742555v9.836696c0 3.934678-1.967339 8.853026-2.951008 11.804034s-2.951009 4.918348-4.918348 7.869357l-2.951009 1.967339c-2.951009 2.951009-6.885687 4.918348-10.820365 6.885687s-7.869356 1.967339-12.787704 1.967339-8.853026-0.98367-12.787704-2.951009-7.869356-3.934678-10.820365-7.869356c-2.951009-2.951009-5.902017-6.885687-7.869356-10.820365s-2.951009-7.869356-2.951009-12.787704c-1.967339-26.559078-9.836695-51.150817-20.657061-73.775217-11.804035-23.608069-27.542747-44.26513-46.232468-61.971181s-41.314121-31.477426-65.90586-40.330452c-23.608069-8.853026-49.183477-13.771374-75.742555-13.771373s-52.134486 4.918348-75.742556 13.771373c-24.591739 9.836695-46.232469 23.608069-65.905859 40.330452-18.689721 17.706052-34.428434 38.363112-46.232469 61.971181-10.820365 22.6244-18.689721 47.216138-20.657061 73.775217 0 4.918348-0.98367 8.853026-2.951008 12.787704s-3.934678 7.869356-7.869357 10.820365c-2.951009 2.951009-6.885687 5.902017-10.820365 7.869356s-8.853026 2.951009-12.787704 2.951009-8.853026-0.98367-11.804034-1.967339c-3.934678-1.967339-7.869356-3.934678-10.820365-6.885687s-5.902017-5.902017-7.869357-9.836696-2.951009-7.869356-2.951008-11.804034v-2.951009-3.934678c1.967339-27.542747 8.853026-54.101825 18.689721-78.693564 9.836695-25.575408 23.608069-49.183477 40.330451-69.840538 14.755043-17.706052 31.477426-34.428434 50.167147-48.199808 16.722382-12.787704 35.412104-23.608069 55.085495-32.461095-5.902017-5.902017-10.820365-10.820365-15.738713-17.706052-5.902017-7.869356-11.804035-15.738713-16.722382-24.591738-6.885687-11.804035-11.804035-24.591739-14.755043-38.363113-2.951009-12.787704-4.918348-26.559078-4.918348-40.330451 0-22.6244 4.918348-43.28146 12.787704-62.954851 8.853026-20.657061 20.657061-38.363112 36.395774-54.101826 15.738713-14.755043 33.444765-27.542747 54.101825-35.412103 19.673391-7.869356 41.314121-12.787704 62.954851-12.787704h3.934678c20.657061 0 41.314121 4.918348 60.003842 12.787704 20.657061 8.853026 38.363112 20.657061 54.101826 35.412103s27.542747 33.444765 36.395773 53.118156c7.869356 19.673391 12.787704 40.330451 12.787704 62.954851 0 13.771374-1.967339 27.542747-4.918348 40.330452-2.951009 13.771374-8.853026 26.559078-14.755043 38.363112-4.918348 8.853026-9.836695 16.722382-16.722382 24.591739-4.918348 5.902017-10.820365 11.804035-15.738713 17.706052 19.673391 8.853026 38.363112 19.673391 55.085495 32.461095 18.689721 13.771374 35.412104 30.493756 50.167147 48.199808zM443.634966 331.496638c-8.853026 8.853026-15.738713 19.673391-20.65706 31.477425s-6.885687 23.608069-6.885687 36.395774 2.951009 25.575408 6.885687 36.395773c4.918348 11.804035 11.804035 22.6244 20.65706 31.477426s19.673391 15.738713 31.477426 20.65706 23.608069 6.885687 37.379443 6.885687c12.787704 0 25.575408-2.951009 37.379443-6.885687 11.804035-4.918348 22.6244-11.804035 31.477425-20.65706s15.738713-19.673391 20.657061-31.477426 6.885687-23.608069 6.885687-36.395773-2.951009-25.575408-6.885687-36.395774c-4.918348-11.804035-11.804035-22.6244-20.657061-31.477425s-19.673391-15.738713-31.477425-20.657061-23.608069-6.885687-37.379443-6.885687c-12.787704 0-25.575408 2.951009-37.379443 6.885687-11.804035 4.918348-22.6244 11.804035-31.477426 20.657061zM511.508165 0C229.195005 0 0 229.195005 0 511.508165s229.195005 511.508165 511.508165 511.508165 511.508165-229.195005 511.508165-511.508165S793.821326 0 511.508165 0z" p-id="23514"></path></svg>