<?xml version="1.0" standalone="no"?><!DOCTYPE svg PUBLIC "-//W3C//DTD SVG 1.1//EN" "http://www.w3.org/Graphics/SVG/1.1/DTD/svg11.dtd"><svg t="1760618847403" class="icon" viewBox="0 0 1024 1024" version="1.1" xmlns="http://www.w3.org/2000/svg" p-id="9672" xmlns:xlink="http://www.w3.org/1999/xlink" width="200" height="200"><path d="M675.36 350a96 96 0 0 0 97.79-97.79c-1-51.32-42.83-93.2-94.15-94.15a96 96 0 0 0-97.79 97.79C582.17 307.17 624 349 675.36 350z" fill="#1296db" p-id="9673"></path><path d="M882.38 331.71c-12.9-7-29-3.76-38.72 7.2L780.54 410l-0.2 0.24c-15.36 19.67-44.16 39-64.58 24.9l-0.39-0.29L499.15 263s-28-24.44-84-11.11S316 293.72 316 293.72s-87.89 59-30.57 81.71 75.1-56.43 117.76-53.77 119.46 10.61 101.5 79.29a6.09 6.09 0 0 1-0.53 1.33l-87.2 162.5c-0.09 0.17-0.19 0.33-0.3 0.49-2.43 3.63-32.45 52.88 103.71 77.57 30.59 5.55 56.15 30.07 57.16 50.78 1.18 24.21-27.46 50-48.3 74.41-38.66 45.33-76.73 70-44.74 108.42s136-127.54 148-146.21 22-56-20.66-100-102-72.65-79.32-103.32 64-93.32 84-84c19.12 8.92 72.54 52.85 77.17 56.67a5.7 5.7 0 0 0 0.73 0.52c5.09 3 56.61 31.25 108.5-28.86 48.86-56.6 84.42-96.32 89.89-107.17 1.95-3.86 3-10.77 3.45-13 0.75-4.37-3.33-13.65-13.87-19.37z" fill="#1296db" p-id="9674"></path><path d="M400 615q-1 0.09-2.06 0.22a62.38 62.38 0 0 0-43.7 26C318.35 693 199.37 769 176.84 780.53c-23.78 12.2-44.24 20-47.81 31.14s-6.24 48 66.28 41.34 217.57-165.2 228.27-186.26S425 612.8 400 615z" fill="#1296db" p-id="9675"></path></svg>