<?xml version="1.0" standalone="no"?><!DOCTYPE svg PUBLIC "-//W3C//DTD SVG 1.1//EN" "http://www.w3.org/Graphics/SVG/1.1/DTD/svg11.dtd"><svg t="1760572973939" class="icon" viewBox="0 0 1024 1024" version="1.1" xmlns="http://www.w3.org/2000/svg" p-id="19254" xmlns:xlink="http://www.w3.org/1999/xlink" width="200" height="200"><path d="M512.381881 1024c-68.078711 0-135.645553-13.82049-198.093694-40.437731-122.336933-52.722611-220.104105-150.489783-272.826716-272.826715a505.932318 505.932318 0 0 1-40.437731-198.093695C-3.07122 448.658108 9.21366 385.186227 35.830901 326.833046c11.77301-18.93919 36.342771-25.593501 55.793831-14.844231 33.783421 13.82049 16.37984 54.258221 16.37984 54.258221-20.98667 45.556431-30.200331 96.231562-26.61724 146.394823 0 238.019555 192.974994 430.994549 430.994549 430.994549s430.994549-192.974994 430.994549-430.994549-192.974994-430.994549-430.994549-430.994549c-52.210741-3.58309-104.933352 5.63057-153.049134 26.617241l-6.65431 3.58309c-23.03415 2.55935-44.020821-13.82049-46.580171-36.854641-1.53561-13.30862 3.58309-27.129111 13.308621-36.34277l7.16618-3.07122C384.926248 8.961769 448.398129-3.323111 512.381881 0.771849c68.078711 0 135.645553 13.82049 198.093694 40.437731 122.336933 52.722611 220.104105 150.489783 272.826715 272.826715 54.258221 126.431893 54.258221 269.243626 0 395.675518-52.722611 122.336933-150.489783 220.104105-272.826715 272.826716-62.960011 27.640981-130.014983 41.461471-198.093694 41.461471zM175.571414 283.324095c-60.912531 1.53561-111.075792-46.580171-112.611403-107.492703-1.53561-60.912531 46.580171-111.075792 107.492703-112.611402s111.075792 46.580171 112.611402 107.492702c0.51187 30.200331-10.74927 59.376921-32.247811 80.363592-19.96293 20.4748-47.092041 31.735941-75.244891 32.247811z m550.772131 226.246544s-324.525587-183.249464-327.596807-183.761333c-30.200331-5.1187-38.902121 16.89171-39.925861 38.39025l-1.02374 0.51187s2.04748 356.773397 3.07122 359.844618c8.70179 24.05789 35.319031 24.05789 53.746352 13.30862h0.51187s300.979566-174.035804 303.538916-176.083284c15.86797-12.28488 30.712201-31.735941 7.67805-52.210741z" p-id="19255" fill="#1296db"></path></svg>