<?xml version="1.0" standalone="no"?><!DOCTYPE svg PUBLIC "-//W3C//DTD SVG 1.1//EN" "http://www.w3.org/Graphics/SVG/1.1/DTD/svg11.dtd"><svg t="1760618883059" class="icon" viewBox="0 0 1024 1024" version="1.1" xmlns="http://www.w3.org/2000/svg" p-id="14091" xmlns:xlink="http://www.w3.org/1999/xlink" width="200" height="200"><path d="M576.1 895.9H155.3c-15 0-27.3-12.2-27.3-27.3V155.3c0-15 12.2-27.3 27.3-27.3h649.5c15 0 27.3 12.2 27.3 27.3V512c0 17.7 14.3 32 32 32s32-14.3 32-32V155.3c0-50.3-40.9-91.3-91.3-91.3H155.3C104.9 64 64 104.9 64 155.3v713.4c0 50.3 40.9 91.3 91.3 91.3h420.9c17.7 0 32-14.3 32-32s-14.4-32.1-32.1-32.1z" p-id="14092" fill="#1296db"></path><path d="M768 575.9c-106 0-192 86-192 192s86 192 192 192 192-86 192-192-86-192-192-192z m90.5 282.5c-24.2 24.1-56.3 37.5-90.5 37.5s-66.3-13.3-90.5-37.5c-24.2-24.2-37.5-56.3-37.5-90.5s13.3-66.3 37.5-90.5c24.2-24.2 56.3-37.5 90.5-37.5s66.3 13.3 90.5 37.5c24.2 24.2 37.5 56.3 37.5 90.5s-13.4 66.3-37.5 90.5zM676 256H288c-17.7 0-32 14.3-32 32s14.3 32 32 32h388c17.7 0 32-14.3 32-32s-14.3-32-32-32zM708 480c0-17.7-14.3-32-32-32H288c-17.7 0-32 14.3-32 32s14.3 32 32 32h388c17.7 0 32-14.3 32-32zM288 639.9c-17.7 0-32 14.3-32 32s14.3 32 32 32h204c17.7 0 32-14.3 32-32s-14.3-32-32-32H288z" p-id="14093" fill="#1296db"></path><path d="M748.8 840.8c-8.5 0-16.6-3.4-22.6-9.4l-44.8-44.8c-12.5-12.5-12.5-32.8 0-45.3s32.8-12.5 45.3 0l22.2 22.2 54.1-54.1c12.5-12.5 32.8-12.5 45.3 0s12.5 32.8 0 45.3l-76.8 76.8c-6.1 5.9-14.2 9.3-22.7 9.3z" p-id="14094" fill="#1296db"></path></svg>