<?xml version="1.0" standalone="no"?><!DOCTYPE svg PUBLIC "-//W3C//DTD SVG 1.1//EN" "http://www.w3.org/Graphics/SVG/1.1/DTD/svg11.dtd"><svg t="1760619692154" class="icon" viewBox="0 0 1024 1024" version="1.1" xmlns="http://www.w3.org/2000/svg" p-id="38159" xmlns:xlink="http://www.w3.org/1999/xlink" width="200" height="200"><path d="M396.739765 185.404235a26.352941 26.352941 0 0 1 35.538823 32.286118 289.641412 289.641412 0 0 0-13.94447 89.088 289.882353 289.882353 0 0 0 289.882353 289.882353 288.828235 288.828235 0 0 0 114.868705-23.642353 26.352941 26.352941 0 0 1 35.538824 32.256 342.708706 342.708706 0 0 1-326.113882 237.327059c-189.199059 0-342.588235-153.359059-342.588236-342.588236 0-137.938824 82.341647-260.818824 206.817883-314.608941z m434.447059 42.315294c23.823059 0 34.936471 28.702118 18.823529 44.815059l-2.349177 2.108236-117.037176 93.605647h100.592941c13.402353 0 24.485647 10.059294 26.112 23.070117l0.210824 3.312941a26.352941 26.352941 0 0 1-23.04 26.142118l-3.312941 0.180706h-175.676236c-23.823059 0-34.936471-28.672-18.823529-44.815059l2.349176-2.108235 117.007059-93.605647H667.105882a26.352941 26.352941 0 0 1-26.142117-23.04l-0.210824-3.312941c0-13.432471 10.059294-24.515765 23.04-26.142118l3.312941-0.210824h164.080942z" fill="#000000" p-id="38160"></path></svg>